<svg xmlns="http://www.w3.org/2000/svg" viewBox="0 0 432.071 445.383">
  <path fill="#4169E1" d="M216.035 0C139.27 0 79.064 17.364 79.064 38.75c0 21.386 60.206 38.75 136.971 38.75 76.766 0 136.972-17.364 136.972-38.75C353.007 17.364 292.8 0 216.035 0zm-1.028 142.083c-76.766 0-136.972 17.365-136.972 38.75 0 21.386 60.206 38.75 136.972 38.75 76.765 0 136.971-17.364 136.971-38.75 0-21.385-60.206-38.75-136.971-38.75zm0 142.084c-76.766 0-136.972 17.364-136.972 38.75 0 21.385 60.206 38.75 136.972 38.75 76.765 0 136.971-17.365 136.971-38.75 0-21.386-60.206-38.75-136.971-38.75z"/>
</svg> 