<svg xmlns="http://www.w3.org/2000/svg" viewBox="0 0 128 128">
  <path fill="#6DB33F" d="M116.5 32.3c-.6-1.1-1.4-2.1-2.3-2.6L64.8 1.5c-.8-.5-1.9-.7-3.1-.7-1.2 0-2.3.3-3.1.7L10.2 29.7c-1.7.9-2.9 2.7-3.1 4.5-.2 1.9.4 3.9 1.8 5.4l45.4 45.4c.9.9 2.1 1.3 3.4 1.3 1.2 0 2.4-.4 3.4-1.3l45.4-45.4c1.4-1.4 2-3.4 1.8-5.4-.1-.8-.3-1.6-.6-2.3zM64.8 5.9l45.4 25.4L64.8 56.7 19.4 31.3 64.8 5.9z"/>
  <path fill="#6DB33F" d="M117.9 61.5c-.6-1.1-1.4-2.1-2.3-2.6L66.2 30.7c-.8-.5-1.9-.7-3.1-.7-1.2 0-2.3.3-3.1.7L11.6 58.9c-1.7.9-2.9 2.7-3.1 4.5-.2 1.9.4 3.9 1.8 5.4l45.4 45.4c.9.9 2.1 1.3 3.4 1.3 1.2 0 2.4-.4 3.4-1.3l45.4-45.4c1.4-1.4 2-3.4 1.8-5.4-.1-.8-.3-1.6-.6-2.3zM66.2 35.1l45.4 25.4-45.4 25.4-45.4-25.4 45.4-25.4z"/>
</svg> 