<svg xmlns="http://www.w3.org/2000/svg" viewBox="0 0 400 400">
  <path fill="#3178C6" d="M0 200V0h400v400H0M322.71 175.94h-138v27.69h53.1v149.64h31.91V203.63h53Z"/>
  <path fill="#3178C6" d="M219.56 174.82v25.56h-53.1v149.64h-31.91V200.38h-53v-25.56Z M316.48 216.83c7.41-11.34 17.06-17.06 28.94-17.06 12.15 0 21.8 3.17 28.94 9.46 7.14 6.34 10.76 15.8 10.76 28.45v115.23h-31.91V241.13c0-7.14-1.58-12.15-4.75-15.8-3.17-3.17-7.92-4.75-14.27-4.75-6.34 0-11.34 1.58-14.51 4.75-3.17 3.65-4.75 8.66-4.75 15.8v115.23h-31.91V200.38h31.91v16.45Z"/>
</svg> 