<svg xmlns="http://www.w3.org/2000/svg" viewBox="0 0 800 600">
  <defs>
    <linearGradient id="grad3" x1="0%" y1="0%" x2="100%" y2="100%">
      <stop offset="0%" style="stop-color:#2dd4bf;stop-opacity:1" />
      <stop offset="100%" style="stop-color:#0ea5e9;stop-opacity:1" />
    </linearGradient>
  </defs>
  <rect width="800" height="600" fill="#1a1a1a"/>
  <g transform="translate(100,100)">
    <!-- Cloud Shape -->
    <path d="M200 200 Q250 150 300 200 Q350 150 400 200 Q450 150 500 200 Q550 250 500 300 Q450 350 400 300 Q350 350 300 300 Q250 350 200 300 Q150 250 200 200" 
          fill="url(#grad3)" opacity="0.2"/>
    
    <!-- Server Racks -->
    <g transform="translate(250,200)">
      <rect x="0" y="0" width="200" height="20" fill="url(#grad3)" opacity="0.8"/>
      <rect x="0" y="30" width="200" height="20" fill="url(#grad3)" opacity="0.8"/>
      <rect x="0" y="60" width="200" height="20" fill="url(#grad3)" opacity="0.8"/>
    </g>
    
    <!-- Connection Lines -->
    <path d="M300 150 L300 190" stroke="#2dd4bf" stroke-width="2"/>
    <path d="M350 150 L350 190" stroke="#2dd4bf" stroke-width="2"/>
    <path d="M400 150 L400 190" stroke="#2dd4bf" stroke-width="2"/>
  </g>
</svg> 